<svg width="172" height="46" viewBox="0 0 172 46" xmlns="http://www.w3.org/2000/svg">
<defs>
<marker id="arrow" viewBox="0 0 10 10" refX="8.5" refY="5" markerWidth="6.5" markerHeight="6.5" orient="auto-start-reverse"><path d="M0,0 L10,5 L0,10 z" fill="#2f5a8a"/></marker>
<marker id="arrowd" viewBox="0 0 10 10" refX="8.5" refY="5" markerWidth="6" markerHeight="6" orient="auto-start-reverse"><path d="M0,0 L10,5 L0,10 z" fill="#8a94a3"/></marker>
</defs>
<rect x="0" y="0" width="172" height="46" fill="#ffffff"/>
<path d="M23.0,15.5 L27.9,15.5" fill="none" stroke="#2f5a8a" stroke-width="1.5" marker-end="url(#arrow)" stroke-linejoin="round"/>
<path d="M47.9,15.5 L52.8,15.5" fill="none" stroke="#2f5a8a" stroke-width="1.5" marker-end="url(#arrow)" stroke-linejoin="round"/>
<path d="M72.8,15.5 L77.69999999999999,15.5" fill="none" stroke="#2f5a8a" stroke-width="1.5" marker-end="url(#arrow)" stroke-linejoin="round"/>
<path d="M97.69999999999999,15.5 L102.6,15.5" fill="none" stroke="#2f5a8a" stroke-width="1.5" marker-end="url(#arrow)" stroke-linejoin="round"/>
<path d="M122.6,15.5 L127.5,15.5" fill="none" stroke="#2f5a8a" stroke-width="1.5" marker-end="url(#arrow)" stroke-linejoin="round"/>
<path d="M147.5,15.5 L152.39999999999998,15.5" fill="none" stroke="#2f5a8a" stroke-width="1.5" marker-end="url(#arrow)" stroke-linejoin="round"/>
<path d="M62.8,23 L62.8,32" fill="none" stroke="#8a94a3" stroke-width="1.1" stroke-dasharray="4.5,3.2" marker-end="url(#arrowd)" stroke-linejoin="round"/>
<rect x="3.0" y="8" width="20" height="15" rx="3.2" fill="#eef2f7" stroke="#1c2e4a" stroke-width="1.3"/>
<rect x="27.9" y="8" width="20" height="15" rx="3.2" fill="#eef2f7" stroke="#1c2e4a" stroke-width="1.3"/>
<rect x="52.8" y="8" width="20" height="15" rx="3.2" fill="#eef2f7" stroke="#1c2e4a" stroke-width="1.3"/>
<rect x="77.69999999999999" y="8" width="20" height="15" rx="3.2" fill="#dce7f2" stroke="#1c2e4a" stroke-width="1.3"/>
<rect x="102.6" y="8" width="20" height="15" rx="3.2" fill="#eef2f7" stroke="#1c2e4a" stroke-width="1.3"/>
<rect x="127.5" y="8" width="20" height="15" rx="3.2" fill="#eef2f7" stroke="#1c2e4a" stroke-width="1.3"/>
<rect x="152.39999999999998" y="8" width="20" height="15" rx="3.2" fill="#eef2f7" stroke="#1c2e4a" stroke-width="1.3"/>
<rect x="48" y="32" width="76" height="10" rx="3.2" fill="#fbeee0" stroke="#8a6d3b" stroke-width="1.3" stroke-dasharray="3,2"/>
</svg>